<svg xmlns="http://www.w3.org/2000/svg" xmlns:xlink="http://www.w3.org/1999/xlink" width="500" zoomAndPan="magnify" viewBox="0 0 375 374.999991" height="500" preserveAspectRatio="xMidYMid meet" version="1.0"><defs><g/><clipPath id="id1"><path d="M 109.953125 98 L 263 98 L 263 193.980469 L 109.953125 193.980469 Z M 109.953125 98 " clip-rule="nonzero"/></clipPath><clipPath id="id2"><path d="M 192 27 L 265.203125 27 L 265.203125 114 L 192 114 Z M 192 27 " clip-rule="nonzero"/></clipPath></defs><g clip-path="url(#id1)"><path fill="#03989e" d="M 262.558594 98.863281 C 260.625 123.664062 251.945312 144.4375 236.480469 161.140625 C 236.480469 161.140625 236.125 158.375 235.453125 152.886719 C 217.304688 169.90625 196.90625 182.304688 174.261719 190.085938 C 135.992188 199.285156 114.527344 187.992188 109.953125 156.242188 C 128.890625 189.691406 184.085938 177.804688 222 138.394531 C 215.804688 136.855469 212.691406 136.0625 212.691406 136.0625 C 235.492188 127.058594 252.105469 114.660156 262.519531 98.863281 Z M 262.558594 98.863281 " fill-opacity="1" fill-rule="evenodd"/></g><path fill="#545454" d="M 148.8125 129.46875 C 156.308594 117.1875 148.183594 100.207031 145.34375 95.46875 C 153.152344 97.089844 159.03125 97.839844 163.015625 97.679688 C 163.015625 97.679688 161.914062 94.402344 159.664062 87.847656 C 148.261719 87.925781 136.386719 85.597656 124.039062 80.859375 C 134.886719 97.796875 143.171875 114.027344 148.8125 129.46875 Z M 148.8125 129.46875 " fill-opacity="1" fill-rule="evenodd"/><path fill="#545454" d="M 176.433594 125.875 C 173.355469 107.671875 165.425781 84.175781 152.679688 55.308594 C 165.382812 62.691406 178.523438 67.945312 192.171875 71.066406 C 192.84375 80.382812 193.199219 85.003906 193.199219 85.003906 C 180.101562 79.316406 173.589844 76.472656 173.589844 76.472656 C 181.480469 101.078125 180.851562 120.03125 176.433594 125.835938 Z M 176.433594 125.875 " fill-opacity="1" fill-rule="evenodd"/><g clip-path="url(#id2)"><path fill="#545454" d="M 200.65625 113.59375 C 201.640625 84.648438 198.800781 55.703125 192.132812 27.507812 C 211.941406 46.503906 237.859375 57.757812 265.203125 59.296875 C 264.808594 78.488281 256.050781 96.535156 241.175781 108.660156 C 245.910156 97.601562 247.605469 85.4375 246.066406 73.511719 C 231.746094 71.972656 218.253906 66.128906 207.324219 56.730469 C 210.597656 72.484375 212.964844 103.011719 200.617188 113.59375 Z M 200.65625 113.59375 " fill-opacity="1" fill-rule="evenodd"/></g><path fill="#03989e" d="M 177.261719 154.820312 C 134.296875 173.5 97.800781 155.691406 118.121094 115.292969 C 115.671875 141.277344 131.535156 149.492188 165.621094 139.855469 C 165.621094 139.855469 163.214844 138.195312 158.402344 134.957031 C 175.089844 134.167969 192.015625 129.429688 209.257812 120.742188 C 199.511719 137.960938 188.820312 151.859375 177.222656 162.363281 C 177.222656 162.363281 177.222656 159.875 177.222656 154.859375 Z M 177.261719 154.820312 " fill-opacity="1" fill-rule="evenodd"/><g fill="#000000" fill-opacity="1"><g transform="translate(138.243976, 262.850988)"><g><path d="M 10.203125 -6.328125 L 18.421875 -6.328125 L 18.421875 0 L 2.6875 0 L 2.6875 -34.734375 L 10.203125 -34.734375 Z M 10.203125 -6.328125 "/></g></g></g><g fill="#000000" fill-opacity="1"><g transform="translate(158.590258, 262.850988)"><g><path d="M 23.140625 -28.1875 L 23.140625 -6.546875 C 23.140625 -1.828125 20.921875 0.53125 16.484375 0.53125 L 9.34375 0.53125 C 4.90625 0.53125 2.6875 -1.828125 2.6875 -6.546875 L 2.6875 -28.1875 C 2.6875 -32.90625 4.90625 -35.265625 9.34375 -35.265625 L 16.484375 -35.265625 C 20.921875 -35.265625 23.140625 -32.90625 23.140625 -28.1875 Z M 15.625 -5.6875 L 15.625 -29.09375 C 15.625 -29.382812 15.523438 -29.632812 15.328125 -29.84375 C 15.128906 -30.0625 14.890625 -30.171875 14.609375 -30.171875 L 11.21875 -30.171875 C 10.9375 -30.171875 10.695312 -30.0625 10.5 -29.84375 C 10.300781 -29.632812 10.203125 -29.382812 10.203125 -29.09375 L 10.203125 -5.6875 C 10.203125 -5.40625 10.300781 -5.15625 10.5 -4.9375 C 10.695312 -4.71875 10.9375 -4.609375 11.21875 -4.609375 L 14.609375 -4.609375 C 14.890625 -4.609375 15.128906 -4.71875 15.328125 -4.9375 C 15.523438 -5.15625 15.625 -5.40625 15.625 -5.6875 Z M 15.625 -5.6875 "/></g></g></g><g fill="#000000" fill-opacity="1"><g transform="translate(185.646979, 262.850988)"><g><path d="M 16.484375 -35.265625 C 20.921875 -35.265625 23.140625 -32.90625 23.140625 -28.1875 L 23.140625 0 L 15.625 0 L 15.625 -11.65625 L 10.203125 -11.65625 L 10.203125 0 L 2.6875 0 L 2.6875 -28.1875 C 2.6875 -32.90625 4.90625 -35.265625 9.34375 -35.265625 Z M 10.203125 -17.453125 L 15.625 -17.453125 L 15.625 -29.09375 C 15.625 -29.382812 15.523438 -29.632812 15.328125 -29.84375 C 15.128906 -30.0625 14.890625 -30.171875 14.609375 -30.171875 L 11.21875 -30.171875 C 10.9375 -30.171875 10.695312 -30.0625 10.5 -29.84375 C 10.300781 -29.632812 10.203125 -29.382812 10.203125 -29.09375 Z M 10.203125 -17.453125 "/></g></g></g><g fill="#000000" fill-opacity="1"><g transform="translate(212.757384, 262.850988)"><g><path d="M 22.609375 0 L 15.09375 0 L 15.09375 -28.828125 C 15.09375 -29.117188 14.992188 -29.367188 14.796875 -29.578125 C 14.597656 -29.796875 14.351562 -29.90625 14.0625 -29.90625 L 11.171875 -29.90625 C 10.878906 -29.90625 10.632812 -29.796875 10.4375 -29.578125 C 10.238281 -29.367188 10.140625 -29.117188 10.140625 -28.828125 L 10.140625 0 L 2.625 0 L 2.625 -28.1875 C 2.625 -32.90625 4.84375 -35.265625 9.28125 -35.265625 L 15.9375 -35.265625 C 20.382812 -35.265625 22.609375 -32.90625 22.609375 -28.1875 Z M 22.609375 0 "/></g></g></g><g fill="#000000" fill-opacity="1"><g transform="translate(65.189293, 337.850983)"><g><path d="M 15.625 -5.6875 L 15.625 -11.0625 L 22.765625 -11.0625 L 22.765625 -6.546875 C 22.765625 -1.828125 20.546875 0.53125 16.109375 0.53125 L 9.34375 0.53125 C 4.90625 0.53125 2.6875 -1.828125 2.6875 -6.546875 L 2.6875 -28.1875 C 2.6875 -32.90625 4.90625 -35.265625 9.34375 -35.265625 L 16.109375 -35.265625 C 20.546875 -35.265625 22.765625 -32.90625 22.765625 -28.1875 L 22.765625 -24.90625 L 15.625 -24.90625 L 15.625 -29.09375 C 15.625 -29.382812 15.523438 -29.632812 15.328125 -29.84375 C 15.128906 -30.0625 14.890625 -30.171875 14.609375 -30.171875 L 11.21875 -30.171875 C 10.9375 -30.171875 10.695312 -30.0625 10.5 -29.84375 C 10.300781 -29.632812 10.203125 -29.382812 10.203125 -29.09375 L 10.203125 -5.6875 C 10.203125 -5.40625 10.300781 -5.15625 10.5 -4.9375 C 10.695312 -4.71875 10.9375 -4.609375 11.21875 -4.609375 L 14.609375 -4.609375 C 14.890625 -4.609375 15.128906 -4.71875 15.328125 -4.9375 C 15.523438 -5.15625 15.625 -5.40625 15.625 -5.6875 Z M 15.625 -5.6875 "/></g></g></g><g fill="#000000" fill-opacity="1"><g transform="translate(90.850236, 337.850983)"><g><path d="M 16.484375 -35.265625 C 20.921875 -35.265625 23.140625 -32.90625 23.140625 -28.1875 L 23.140625 0 L 15.625 0 L 15.625 -11.65625 L 10.203125 -11.65625 L 10.203125 0 L 2.6875 0 L 2.6875 -28.1875 C 2.6875 -32.90625 4.90625 -35.265625 9.34375 -35.265625 Z M 10.203125 -17.453125 L 15.625 -17.453125 L 15.625 -29.09375 C 15.625 -29.382812 15.523438 -29.632812 15.328125 -29.84375 C 15.128906 -30.0625 14.890625 -30.171875 14.609375 -30.171875 L 11.21875 -30.171875 C 10.9375 -30.171875 10.695312 -30.0625 10.5 -29.84375 C 10.300781 -29.632812 10.203125 -29.382812 10.203125 -29.09375 Z M 10.203125 -17.453125 "/></g></g></g><g fill="#000000" fill-opacity="1"><g transform="translate(117.960641, 337.850983)"><g><path d="M 10.203125 -6.328125 L 18.421875 -6.328125 L 18.421875 0 L 2.6875 0 L 2.6875 -34.734375 L 10.203125 -34.734375 Z M 10.203125 -6.328125 "/></g></g></g><g fill="#000000" fill-opacity="1"><g transform="translate(138.306924, 337.850983)"><g><path d="M 15.625 -5.6875 L 15.625 -11.0625 L 22.765625 -11.0625 L 22.765625 -6.546875 C 22.765625 -1.828125 20.546875 0.53125 16.109375 0.53125 L 9.34375 0.53125 C 4.90625 0.53125 2.6875 -1.828125 2.6875 -6.546875 L 2.6875 -28.1875 C 2.6875 -32.90625 4.90625 -35.265625 9.34375 -35.265625 L 16.109375 -35.265625 C 20.546875 -35.265625 22.765625 -32.90625 22.765625 -28.1875 L 22.765625 -24.90625 L 15.625 -24.90625 L 15.625 -29.09375 C 15.625 -29.382812 15.523438 -29.632812 15.328125 -29.84375 C 15.128906 -30.0625 14.890625 -30.171875 14.609375 -30.171875 L 11.21875 -30.171875 C 10.9375 -30.171875 10.695312 -30.0625 10.5 -29.84375 C 10.300781 -29.632812 10.203125 -29.382812 10.203125 -29.09375 L 10.203125 -5.6875 C 10.203125 -5.40625 10.300781 -5.15625 10.5 -4.9375 C 10.695312 -4.71875 10.9375 -4.609375 11.21875 -4.609375 L 14.609375 -4.609375 C 14.890625 -4.609375 15.128906 -4.71875 15.328125 -4.9375 C 15.523438 -5.15625 15.625 -5.40625 15.625 -5.6875 Z M 15.625 -5.6875 "/></g></g></g><g fill="#000000" fill-opacity="1"><g transform="translate(163.967867, 337.850983)"><g><path d="M 15.09375 -34.734375 L 22.609375 -34.734375 L 22.609375 -6.546875 C 22.609375 -1.828125 20.382812 0.53125 15.9375 0.53125 L 9.28125 0.53125 C 4.84375 0.53125 2.625 -1.828125 2.625 -6.546875 L 2.625 -34.734375 L 10.140625 -34.734375 L 10.140625 -5.90625 C 10.140625 -5.613281 10.238281 -5.359375 10.4375 -5.140625 C 10.632812 -4.929688 10.878906 -4.828125 11.171875 -4.828125 L 14.0625 -4.828125 C 14.351562 -4.828125 14.597656 -4.929688 14.796875 -5.140625 C 14.992188 -5.359375 15.09375 -5.613281 15.09375 -5.90625 Z M 15.09375 -34.734375 "/></g></g></g><g fill="#000000" fill-opacity="1"><g transform="translate(190.111961, 337.850983)"><g><path d="M 10.203125 -6.328125 L 18.421875 -6.328125 L 18.421875 0 L 2.6875 0 L 2.6875 -34.734375 L 10.203125 -34.734375 Z M 10.203125 -6.328125 "/></g></g></g><g fill="#000000" fill-opacity="1"><g transform="translate(210.458239, 337.850983)"><g><path d="M 16.484375 -35.265625 C 20.921875 -35.265625 23.140625 -32.90625 23.140625 -28.1875 L 23.140625 0 L 15.625 0 L 15.625 -11.65625 L 10.203125 -11.65625 L 10.203125 0 L 2.6875 0 L 2.6875 -28.1875 C 2.6875 -32.90625 4.90625 -35.265625 9.34375 -35.265625 Z M 10.203125 -17.453125 L 15.625 -17.453125 L 15.625 -29.09375 C 15.625 -29.382812 15.523438 -29.632812 15.328125 -29.84375 C 15.128906 -30.0625 14.890625 -30.171875 14.609375 -30.171875 L 11.21875 -30.171875 C 10.9375 -30.171875 10.695312 -30.0625 10.5 -29.84375 C 10.300781 -29.632812 10.203125 -29.382812 10.203125 -29.09375 Z M 10.203125 -17.453125 "/></g></g></g><g fill="#000000" fill-opacity="1"><g transform="translate(237.568639, 337.850983)"><g><path d="M 0.703125 -28.34375 L 0.703125 -34.734375 L 19.484375 -34.734375 L 19.484375 -28.34375 L 13.84375 -28.34375 L 13.84375 0 L 6.328125 0 L 6.328125 -28.34375 Z M 0.703125 -28.34375 "/></g></g></g><g fill="#000000" fill-opacity="1"><g transform="translate(258.881221, 337.850983)"><g><path d="M 23.140625 -28.1875 L 23.140625 -6.546875 C 23.140625 -1.828125 20.921875 0.53125 16.484375 0.53125 L 9.34375 0.53125 C 4.90625 0.53125 2.6875 -1.828125 2.6875 -6.546875 L 2.6875 -28.1875 C 2.6875 -32.90625 4.90625 -35.265625 9.34375 -35.265625 L 16.484375 -35.265625 C 20.921875 -35.265625 23.140625 -32.90625 23.140625 -28.1875 Z M 15.625 -5.6875 L 15.625 -29.09375 C 15.625 -29.382812 15.523438 -29.632812 15.328125 -29.84375 C 15.128906 -30.0625 14.890625 -30.171875 14.609375 -30.171875 L 11.21875 -30.171875 C 10.9375 -30.171875 10.695312 -30.0625 10.5 -29.84375 C 10.300781 -29.632812 10.203125 -29.382812 10.203125 -29.09375 L 10.203125 -5.6875 C 10.203125 -5.40625 10.300781 -5.15625 10.5 -4.9375 C 10.695312 -4.71875 10.9375 -4.609375 11.21875 -4.609375 L 14.609375 -4.609375 C 14.890625 -4.609375 15.128906 -4.71875 15.328125 -4.9375 C 15.523438 -5.15625 15.625 -5.40625 15.625 -5.6875 Z M 15.625 -5.6875 "/></g></g></g><g fill="#000000" fill-opacity="1"><g transform="translate(285.937937, 337.850983)"><g><path d="M 10.203125 -14.234375 L 10.203125 0 L 2.6875 0 L 2.6875 -34.734375 L 16.046875 -34.734375 C 20.484375 -34.734375 22.703125 -32.375 22.703125 -27.65625 L 22.703125 -23.625 C 22.703125 -20.757812 21.6875 -18.929688 19.65625 -18.140625 C 21.4375 -17.503906 22.328125 -16.039062 22.328125 -13.75 L 22.328125 0 L 14.8125 0 L 14.8125 -13.15625 C 14.8125 -13.875 14.472656 -14.234375 13.796875 -14.234375 Z M 10.203125 -29.640625 L 10.203125 -19.484375 L 14.171875 -19.484375 C 14.460938 -19.484375 14.703125 -19.59375 14.890625 -19.8125 C 15.085938 -20.03125 15.1875 -20.28125 15.1875 -20.5625 L 15.1875 -28.5625 C 15.1875 -28.84375 15.085938 -29.09375 14.890625 -29.3125 C 14.703125 -29.53125 14.460938 -29.640625 14.171875 -29.640625 Z M 10.203125 -29.640625 "/></g></g></g></svg>